<mxfile host="app.diagrams.net" modified="2024-02-05T23:59:23.212Z" agent="Mozilla/5.0 (Windows NT 10.0; Win64; x64) AppleWebKit/537.36 (KHTML, like Gecko) Chrome/121.0.0.0 Safari/537.36" etag="PfIg3ElQbrJ1Ws5WMLvA" version="23.1.1" type="github">
  <diagram name="Page-1" id="cELOeBPH5fHN-PTh6r6i">
    <mxGraphModel dx="2023" dy="594" grid="1" gridSize="10" guides="1" tooltips="1" connect="1" arrows="1" fold="1" page="1" pageScale="1" pageWidth="850" pageHeight="1100" math="0" shadow="0">
      <root>
        <mxCell id="0" />
        <mxCell id="1" parent="0" />
        <mxCell id="TyUvi6pv0yWCHdS88cj0-25" value="Vertical Container" style="swimlane;whiteSpace=wrap;html=1;" parent="1" vertex="1">
          <mxGeometry x="-100" y="230" width="400" height="320" as="geometry">
            <mxRectangle x="50" y="230" width="140" height="30" as="alternateBounds" />
          </mxGeometry>
        </mxCell>
        <mxCell id="Bwfb_WO4ZSQ5CkVbW3Iq-2" value="&lt;h1&gt;&lt;span style=&quot;background-color: initial; font-weight: normal;&quot;&gt;&lt;font style=&quot;font-size: 48px;&quot;&gt;Num Storage&lt;/font&gt;&lt;/span&gt;&lt;/h1&gt;&lt;div&gt;&lt;span style=&quot;font-size: medium; background-color: initial;&quot;&gt;- number: List[int]&lt;/span&gt;&lt;br&gt;&lt;/div&gt;&lt;div&gt;&lt;font size=&quot;3&quot; style=&quot;&quot;&gt;- top: int&lt;/font&gt;&lt;/div&gt;&lt;div&gt;&lt;font size=&quot;3&quot;&gt;&lt;br&gt;&lt;/font&gt;&lt;/div&gt;&lt;div&gt;&lt;font size=&quot;3&quot;&gt;&lt;br&gt;&lt;/font&gt;&lt;/div&gt;&lt;div&gt;&lt;font size=&quot;3&quot;&gt;+ __init__()&lt;/font&gt;&lt;/div&gt;&lt;div&gt;&lt;font size=&quot;3&quot;&gt;+ init_operate_num()&lt;/font&gt;&lt;/div&gt;&lt;div&gt;&lt;font size=&quot;3&quot;&gt;+ in_num_storage&lt;/font&gt;&lt;/div&gt;&lt;div&gt;&lt;font size=&quot;3&quot;&gt;+ read_num_storage()&lt;/font&gt;&lt;/div&gt;&lt;div&gt;&lt;font size=&quot;3&quot;&gt;+ get_num_data()&lt;/font&gt;&lt;/div&gt;&lt;div&gt;&lt;br&gt;&lt;/div&gt;" style="text;html=1;strokeColor=none;fillColor=none;spacing=5;spacingTop=-20;whiteSpace=wrap;overflow=hidden;rounded=0;" vertex="1" parent="TyUvi6pv0yWCHdS88cj0-25">
          <mxGeometry x="10" y="20" width="380" height="280" as="geometry" />
        </mxCell>
        <mxCell id="Bwfb_WO4ZSQ5CkVbW3Iq-4" value="" style="endArrow=none;html=1;rounded=0;" edge="1" parent="TyUvi6pv0yWCHdS88cj0-25">
          <mxGeometry width="50" height="50" relative="1" as="geometry">
            <mxPoint x="400" y="170" as="sourcePoint" />
            <mxPoint y="170" as="targetPoint" />
          </mxGeometry>
        </mxCell>
        <mxCell id="TyUvi6pv0yWCHdS88cj0-31" value="Vertical Container" style="swimlane;whiteSpace=wrap;html=1;" parent="1" vertex="1">
          <mxGeometry x="480" y="230" width="380" height="320" as="geometry" />
        </mxCell>
        <mxCell id="Bwfb_WO4ZSQ5CkVbW3Iq-5" value="&lt;h1&gt;Symbol Storage&lt;/h1&gt;&lt;div&gt;&lt;br&gt;&lt;/div&gt;&lt;div&gt;- symbol: List[str]&lt;/div&gt;&lt;div&gt;- top: int&lt;/div&gt;&lt;div&gt;&lt;br&gt;&lt;/div&gt;&lt;div&gt;&lt;br&gt;&lt;/div&gt;&lt;div&gt;+ __init__()&lt;/div&gt;&lt;div&gt;+ init_operation_symbol()&lt;/div&gt;&lt;div&gt;+ in_symbol_storage()&lt;/div&gt;&lt;div&gt;+ read_symbol_storage()&lt;/div&gt;&lt;div&gt;+ get_symbol()&lt;/div&gt;" style="text;html=1;strokeColor=none;fillColor=none;spacing=5;spacingTop=-20;whiteSpace=wrap;overflow=hidden;rounded=0;" vertex="1" parent="TyUvi6pv0yWCHdS88cj0-31">
          <mxGeometry x="10" y="30" width="370" height="280" as="geometry" />
        </mxCell>
        <mxCell id="TyUvi6pv0yWCHdS88cj0-34" value="" style="endArrow=none;html=1;rounded=0;exitX=0;exitY=0.25;exitDx=0;exitDy=0;entryX=1;entryY=0.25;entryDx=0;entryDy=0;" parent="1" source="TyUvi6pv0yWCHdS88cj0-25" target="TyUvi6pv0yWCHdS88cj0-25" edge="1">
          <mxGeometry width="50" height="50" relative="1" as="geometry">
            <mxPoint x="70" y="350" as="sourcePoint" />
            <mxPoint x="120" y="300" as="targetPoint" />
          </mxGeometry>
        </mxCell>
      </root>
    </mxGraphModel>
  </diagram>
</mxfile>
